<?xml version="1.0" encoding="UTF-8"?>
<svg id="Layer_1" xmlns="http://www.w3.org/2000/svg" viewBox="8 8 16 16">
  <defs>
    <style>
      .cls-1 {
        fill: #20a6b6;
      }

      .cls-2 {
        fill: #fef8ed;
      }

      .cls-3 {
        fill: #faa94f;
      }

      .cls-4 {
        fill: #fff;
      }

      .cls-5 {
        fill: none;
        stroke: #2c3869;
        stroke-linecap: round;
        stroke-linejoin: round;
        stroke-width: .12px;
      }

      .cls-6 {
        fill: #fef1d9;
      }

      .cls-7 {
        fill: #293a6d;
      }
    </style>
  </defs>
  <g id="Generative_Object">
    <g>
      <path class="cls-1" d="M8.86,12.15l2.63.05v6.48c-.68.29-.8-.32-.86.61l-1.79-.05.02-7.09Z"/>
      <path class="cls-7" d="M12.73,23.56c.85-.03,7.14-.04,7.51.03.45.08.92.89.53,1.09h-9.85c-.31-.08-.06-.77.25-.97.3-.19,1.16-.14,1.56-.16Z"/>
      <path class="cls-7" d="M14.26,21.37h3.18l1.04,1.89-5.25.02c-.09-.06.94-1.72,1.03-1.9Z"/>
      <path class="cls-3" d="M10.98,18.94c.32.08,2.23-.05,2.34,0,.08.03.07.3-.03.34-.11.04-1.96-.03-2.31,0v-.34Z"/>
      <path class="cls-1" d="M16.28,12.37c.15.06.76.92.65.97-1.55-.05-1.53.31-.65-.97Z"/>
      <g>
        <path class="cls-7" d="M16.03,8.97c.27-.2.07.97.16,1.03.01.01.33.02.36-.05.03-.07-.08-1.27.12-.97.03.04.02,1.01,0,1.06-.03.08-.17.07-.19.12-.02.05-.02,1.01,0,1.06,0,.01.22.14.23.14.34.08,5.99-.08,6.39,0,.21.04.47.34.55.55-.06,1.24.08,8.15,0,8.57-.05.23-.42.57-.67.61-2.12-.11-13.34.14-14.27,0-.31-.05-.62-.32-.67-.64-.1-.58.07-7.16,0-8.54.08-.24.28-.5.55-.55.29-.05,2.27.03,2.88.02l-.05.48h-2.77l-.08.08.05,7.62h14.43l.08-.08c-.09-.96.12-7.15,0-7.51,0-.02-.08-.07-.11-.11-1.8.08-4.77-.1-6.36,0-.03,0-.02.15-.53.09-.02,0-.08-.09-.09-.09-.64-.04-3.1.08-3.22-.02-.04-.03-.04-.46-.02-.48.13-.09,2.79.09,3.18,0,.02,0,.39-.23.33-.33-.01-.02-.16,0-.19-.09-.02-.07.09-.2.09-.22.07-.81-.14-.55-.19-.65-.02-.05-.03-1.07.02-1.11Z"/>
        <path class="cls-4" d="M15.69,20c.59-.16.61.61.22.69-.44.09-.54-.6-.22-.69Z"/>
        <path class="cls-4" d="M16.22,11.34c.58-.16.42.69,0,.5-.17-.08-.21-.44,0-.5Z"/>
      </g>
      <g>
        <path class="cls-3" d="M12.17,6.98c.12-.05.22.1.3.17-.15.09.12.99.17,1.01,1.65.08,3.3,0,4.95,0,.27,0,.68.17.87-.06,0,.06.21.09.22.09,1.02,0,2.04,0,3.05,0,.36.22,1.51.58,1.06.72-.45.14-8.22-.11-9.41,0-.15.11.41.55-.84.44-.13,1.19.12,8.89-.02,9.33-.07.22-.17-.05-.19-.06-.72-.6-.15.15-.58.14l-.02-9.39c-1.38.07-.75-.33-.92-.45-.07-.05-1.58.04-1.81,0-.05.03,0,.37-.02.45-.05.17-.97.17-1.03,0-.03-.1.02-.87,0-1.12.08-.2,1.01.06,1.26-.17.09-.04.15.09.19.09.8,0,1.6,0,2.4,0,.13-.05.24-.82.26-.98,0-.02-.07-.01-.06-.03,0-.01.13-.17.14-.17Z"/>
        <g>
          <path class="cls-4" d="M11.54,8.38c.64.05,1.2-.24.87.56h-.84l-.03-.56Z"/>
          <path class="cls-4" d="M12.23,7.48c.06.07.18.61.17.64-.03.07-.31.06-.33.05-.04-.02.15-.6.16-.69Z"/>
          <path class="cls-4" d="M12.26,14.71c.23.92-.23.34-.23.3-.02-.1.18-.22.23-.3Z"/>
          <path class="cls-4" d="M12.23,11.31s.06,0,.08.02l-.05.48c-.42-.26-.06-.5-.03-.5Z"/>
          <path class="cls-4" d="M10.73,8.41c.25,0,.12.47-.33.2,0-.03.31-.2.33-.2Z"/>
          <path class="cls-4" d="M12.26,10.38c.23.82-.24.36-.2.2,0-.02.16-.15.2-.2Z"/>
          <path class="cls-2" d="M21.83,8.44s.2.19.55.23l-.61.02c-.08,0,.05-.24.06-.25Z"/>
          <path class="cls-4" d="M11.95,14.27c.35.24.24.22.03.5l-.03-.5Z"/>
          <path class="cls-4" d="M11.95,15.21s.42.27,0,.53v-.53Z"/>
          <path class="cls-4" d="M11.95,10.84s.42.26,0,.53v-.53Z"/>
          <path class="cls-2" d="M16.69,8.51c.08-.02.3.03.36.14-.19.15-.82,0-.36-.14Z"/>
          <path class="cls-4" d="M12.23,9.57s.06,0,.08.02c.08.9-.45,0-.08-.02Z"/>
          <path class="cls-4" d="M11.95,9.97c.35.24.23.2.03.47l-.03-.47Z"/>
          <path class="cls-2" d="M12.23,15.7c.19-.03-.05.12-.02.3,0,.01.19.05.05.2-.2-.1-.29-.46-.03-.5Z"/>
          <path class="cls-2" d="M19.68,8.48c.1-.02.21.11.3.17-.64.19-.41-.15-.3-.17Z"/>
          <path class="cls-4" d="M20.55,8.41c.19.02-.11.28-.12.28-.45.12,0-.29.12-.28Z"/>
          <path class="cls-4" d="M11.95,16.14s.23.22.23.23c0,.05-.37.43-.23-.23Z"/>
          <path class="cls-2" d="M9.99,8.26l.58.05c-.31.09-.27.19-.58.02v-.06Z"/>
          <path class="cls-4" d="M11.98,13.15c.17-.07.31.29.09.31-.14.02-.18-.28-.09-.31Z"/>
          <path class="cls-4" d="M21.61,8.44c.23,0-.02.31-.36.2-.05-.03.34-.2.36-.2Z"/>
          <path class="cls-4" d="M12.23,13.96s.06,0,.08.02c.02.04.1.55-.28.12.09-.04.19-.14.2-.14Z"/>
          <path class="cls-4" d="M15.75,8.38c.08,0,.04.29-.03.31-.44.15-.08-.19.03-.31Z"/>
          <path class="cls-4" d="M9.27,8.41s.21.07.2.14c0,.03-.21.18-.26.14-.03-.02.04-.27.06-.28Z"/>
          <path class="cls-2" d="M13.88,8.48c.26,0,.09.37-.16.22-.08-.05.11-.22.16-.22Z"/>
          <path class="cls-2" d="M19.4,8.38c.35-.07-.21.34-.25.31-.08-.07.2-.3.25-.31Z"/>
          <path class="cls-4" d="M12.26,17.08c.09.01.06.34,0,.34-.19.03-.16-.36,0-.34Z"/>
          <path class="cls-4" d="M14.66,8.48c.47-.08-.13.26-.19.22-.1-.08.12-.21.19-.22Z"/>
          <path class="cls-6" d="M15.88,8.51s.33.12.33.14c0,.13-.53.02-.33-.14Z"/>
          <path class="cls-4" d="M11.95,11.75s.2.19.2.2c0,.03-.34.41-.2-.2Z"/>
          <path class="cls-4" d="M15.47,8.35s.05,0,.05.05c-.37.36-.61-.13-.05-.05Z"/>
          <path class="cls-2" d="M11.95,17.42c.3.18.1.16.03.37l-.08-.02.05-.36Z"/>
          <path class="cls-2" d="M17.78,8.38l.33.05c-.26.36-.08.2-.33-.05Z"/>
          <path class="cls-4" d="M20.83,8.51c.13,0,.43.35-.2.11.04,0,.19-.11.2-.11Z"/>
          <path class="cls-2" d="M19.77,8.35l.51.05c-.14.12-.4.14-.51-.05Z"/>
          <path class="cls-4" d="M16.09,8.38l.51.02c-.16.1-.38.16-.51-.02Z"/>
          <path class="cls-4" d="M8.62,8.35c.6-.08.05.3-.02.08,0-.02,0-.06.02-.08Z"/>
          <path class="cls-4" d="M18.37,8.48c.22,0-.21.35-.23.17,0-.02.21-.17.23-.17Z"/>
          <path class="cls-2" d="M17.62,8.54c.09-.03.2.1.2.11-.02.15-.49-.02-.2-.11Z"/>
          <path class="cls-2" d="M17.34,8.38c.36-.11-.29.48-.11.11,0-.01.1-.11.11-.11Z"/>
          <path class="cls-2" d="M18.84,8.38l.3.02c-.14.11-.25.23-.3-.02Z"/>
          <path class="cls-4" d="M16.87,8.38l.3.05c-.11.14-.34.03-.3-.05Z"/>
          <path class="cls-2" d="M12.07,12.71s.2.1.2.11c0,.14-.43-.02-.2-.11Z"/>
          <path class="cls-2" d="M14.07,8.38c.32.32.11.36.05.26l-.05-.26Z"/>
          <path class="cls-2" d="M12.07,16.76c.22-.06.11.18.03.19-.09,0-.13-.16-.03-.19Z"/>
          <path class="cls-2" d="M12.14,12.28c.23,0-.16.35-.14.11,0-.02.13-.11.14-.11Z"/>
          <path class="cls-2" d="M12.07,13.71c.14-.06.18.13.06.16-.12.02-.15-.12-.06-.16Z"/>
          <path class="cls-2" d="M15,8.57s.2.07.2.08c0,.1-.36.04-.2-.08Z"/>
          <path class="cls-4" d="M12.07,17.92c.25-.13.04.21-.03.16-.04-.03-.02-.13.03-.16Z"/>
          <path class="cls-2" d="M13.54,8.38s.16,0,.17.02c.05.09-.39.13-.17-.02Z"/>
        </g>
      </g>
      <g>
        <path class="cls-1" d="M12.82,12.15h3.24c-.03.27-1.15,1.32-.62,1.46.08.02,1.66.02,1.74,0,.56-.16-.6-1.15-.59-1.46h6.23l.02,7.06-.08.08h-9.1v-.53h-.84v-6.61Z"/>
        <g>
          <path class="cls-4" d="M17,14.02l.83.05v2.06l1.48.05c.17.51-.23.98.58.67-.02-.12.02-.75,0-.78-.07-.1-.29.32-.22-.97l.65.03-.05,4-6.43-.05c.1-.32-.02-1.82.03-1.9.02-.03.42-.03.44,0,.07.64-.16.83.59.65.06-.32-.08-2.51,0-2.62.01-.02.43-.05.47.03l.02.67c1.11.2-.06-1,.98-.67l.02.67c.13-.02.49.06.55-.08l.08-1.82Z"/>
          <g>
            <path class="cls-1" d="M14.35,18.23l.55.05c0,.56.09.72-.56.56l.02-.61Z"/>
            <path class="cls-1" d="M19.37,18.23s.49-.02.51.05c0,.58.13.67-.53.59.01-.09-.03-.61.02-.64Z"/>
            <path class="cls-1" d="M15.38,16.26s.5,0,.51.02c0,.53.13.77-.53.59.01-.09-.03-.58.02-.61Z"/>
            <path class="cls-1" d="M17.37,16.26s.5,0,.51.02c0,.53.13.77-.53.59.01-.09-.03-.58.02-.61Z"/>
            <path class="cls-1" d="M18.37,18.23s.49-.02.51.05c0,.53.11.73-.53.56.01-.09-.03-.58.02-.61Z"/>
            <path class="cls-1" d="M17.37,18.23s.49-.02.51.05c0,.53.11.73-.53.56.01-.09-.03-.58.02-.61Z"/>
            <path class="cls-1" d="M15.38,18.23s.49-.02.51.05c0,.53.11.73-.53.56.01-.09-.03-.58.02-.61Z"/>
            <path class="cls-1" d="M16.37,16.26s.49-.02.51.05c0,.53.11.73-.53.56.01-.09-.03-.58.02-.61Z"/>
            <path class="cls-1" d="M16.37,18.23s.49-.02.51.05c0,.53.11.73-.53.56.01-.09-.03-.58.02-.61Z"/>
            <path class="cls-1" d="M15.38,17.26s.5,0,.51.02c0,.58.13.67-.53.59.01-.09-.03-.58.02-.61Z"/>
            <path class="cls-1" d="M16.37,17.26s.5,0,.51.02c0,.58.13.67-.53.59.01-.09-.03-.58.02-.61Z"/>
            <path class="cls-1" d="M17.37,17.26s.49-.02.51.05c0,.57.1.63-.53.56.01-.09-.03-.58.02-.61Z"/>
            <path class="cls-1" d="M18.37,17.26s.49-.02.51.05c0,.57.1.63-.53.56.01-.09-.03-.58.02-.61Z"/>
            <path class="cls-1" d="M19.37,17.26s.47,0,.48.02c-.02.61.15.66-.5.59.01-.09-.03-.58.02-.61Z"/>
          </g>
        </g>
      </g>
    </g>
    <line class="cls-5" x1="12.56" y1="7.17" x2="18.26" y2="8.12"/>
  </g>
</svg>